<svg width="28" height="24" viewBox="0 0 28 24" fill="none" xmlns="http://www.w3.org/2000/svg">
<path d="M28 7.0287C27.9498 8.76951 27.234 10.4248 26 11.6537L21.6562 15.9999C21.0236 16.6361 20.2711 17.1404 19.4422 17.4837C18.6133 17.827 17.7246 18.0024 16.8275 17.9999H16.8212C15.9088 17.9993 15.0057 17.8158 14.1654 17.4603C13.325 17.1048 12.5644 16.5844 11.9286 15.93C11.2927 15.2756 10.7944 14.5004 10.4632 13.6502C10.1319 12.8 9.97443 11.892 9.99998 10.9799C10.0074 10.7147 10.12 10.4633 10.3128 10.2811C10.5056 10.0988 10.7629 10.0006 11.0281 10.0081C11.2933 10.0155 11.5447 10.128 11.727 10.3209C11.9092 10.5137 12.0074 10.771 12 11.0362C11.9818 11.6811 12.093 12.3231 12.3271 12.9243C12.5613 13.5255 12.9135 14.0736 13.3631 14.5364C13.8127 14.9991 14.3504 15.3671 14.9446 15.6184C15.5388 15.8698 16.1773 15.9995 16.8225 15.9999C17.4567 16.0016 18.0849 15.8775 18.6709 15.6348C19.2568 15.3921 19.7889 15.0357 20.2362 14.5862L24.58 10.2424C25.4762 9.33496 25.977 8.10975 25.973 6.83433C25.969 5.55891 25.4605 4.33686 24.5587 3.435C23.6568 2.53313 22.4348 2.0247 21.1593 2.02071C19.8839 2.01672 18.6587 2.51749 17.7512 3.4137L16.3762 4.78869C16.1872 4.96831 15.9354 5.06697 15.6747 5.06363C15.4139 5.0603 15.1648 4.95523 14.9804 4.77082C14.7959 4.58642 14.6909 4.33728 14.6875 4.07652C14.6842 3.81576 14.7829 3.56401 14.9625 3.37495L16.3375 1.99994C16.9718 1.36536 17.725 0.861962 18.554 0.518513C19.3829 0.175064 20.2714 -0.00170898 21.1687 -0.00170898C22.066 -0.00170898 22.9545 0.175064 23.7835 0.518513C24.6124 0.861962 25.3656 1.36536 26 1.99994C26.657 2.65864 27.1732 3.44416 27.517 4.30868C27.8609 5.1732 28.0252 6.09865 28 7.0287ZM11.625 19.2074L10.25 20.5824C9.80151 21.0339 9.26777 21.3917 8.67979 21.635C8.09181 21.8784 7.46132 22.0024 6.82498 21.9999C5.87036 21.9992 4.93738 21.7155 4.14394 21.1847C3.35049 20.6539 2.73218 19.8998 2.36712 19.0177C2.00207 18.1357 1.90666 17.1652 2.09294 16.2289C2.27923 15.2927 2.73885 14.4326 3.41373 13.7574L7.74998 9.4137C8.43296 8.72711 9.30661 8.26175 10.2575 8.07805C11.2083 7.89436 12.1924 8.00082 13.082 8.38361C13.9716 8.76639 14.7255 9.40782 15.2459 10.2246C15.7662 11.0413 16.029 11.9957 16 12.9637C15.9925 13.2289 16.0907 13.4862 16.273 13.679C16.4552 13.8719 16.7066 13.9844 16.9719 13.9918C17.2371 13.9993 17.4944 13.9011 17.6872 13.7188C17.88 13.5366 17.9925 13.2852 18 13.0199C18.024 12.0914 17.8591 11.1676 17.5153 10.3046C17.1715 9.44171 16.656 8.65762 16 7.99995C14.719 6.71948 12.9819 6.00017 11.1706 6.00017C9.35936 6.00017 7.62225 6.71948 6.34123 7.99995L1.99998 12.3437C1.04527 13.298 0.394876 14.5139 0.130994 15.8378C-0.132888 17.1616 0.00158519 18.534 0.517419 19.7814C1.03325 21.0289 1.9073 22.0954 3.02909 22.8463C4.15089 23.5971 5.47009 23.9986 6.81998 23.9999C7.71732 24.0025 8.60626 23.8271 9.43533 23.4838C10.2644 23.1405 11.0171 22.6361 11.65 21.9999L13.025 20.6249C13.1868 20.4343 13.2714 20.19 13.2619 19.9401C13.2525 19.6902 13.1499 19.453 12.9741 19.2751C12.7984 19.0971 12.5624 18.9915 12.3127 18.979C12.063 18.9665 11.8176 19.048 11.625 19.2074Z" fill="black"/>
</svg>
